<?xml version="1.0" encoding="UTF-8"?>
<svg id="Layer_1" data-name="Layer 1" xmlns="http://www.w3.org/2000/svg" viewBox="0 0 790.55 296.37">
  <defs>
    <style>
      .cls-1 {
        fill: #033584;
      }

      .cls-2 {
        fill: #f2082a;
      }

      .cls-3 {
        fill: #eff3f9;
      }
    </style>
  </defs>
  <circle class="cls-3" cx="380.6" cy="98.14" r="98.14"/>
  <g>
    <path class="cls-1" d="M328.3,145.82l-.89-2.14c14.29-24.9,24.04-42.23,29.25-51.99-1.25-8.04,1.55-13.49,8.39-16.34,1.71-.71,3.69-1.12,5.94-1.23l1.44,1.38c-.03.85.23,1.93.77,3.23.47,1.13,1.93,2.97,4.39,5.53,2.45,2.57,4.44,4.75,5.96,6.55,1.52,1.81,2.82,4.01,3.91,6.62,1.63,3.92,1.97,8.18,1.03,12.78-.95,4.61-3.06,9.53-6.33,14.75-3.27,5.23-7.86,11.09-13.75,17.59,3.08-.87,5.48-1.66,7.19-2.37,3.34-1.39,6.69-3.5,10.05-6.33,3.36-2.83,6.63-6.11,9.81-9.84,3.18-3.73,6.78-8.34,10.8-13.85l2.49,5.96c-7.34,11.77-14.32,21.27-20.96,28.53-6.64,7.26-12.93,12.12-18.87,14.6-7.66,3.19-15.74,3.78-24.23,1.75-5.02-1.25-8.54-2.98-10.56-5.2-2.03-2.22-3.97-5.55-5.82-10ZM368.21,113.21l-7.62-12.07c-3.32,6.26-10.79,18.74-22.41,37.44,5.21-1.27,8.98-1.62,11.32-1.07,2.34.56,5.91,2.03,10.73,4.4,4.85-3.97,8.16-8.01,9.93-12.13,1.77-4.12,1.62-8.67-.45-13.65-.25-.59-.49-1.12-.73-1.57-.24-.46-.5-.91-.78-1.35Z"/>
    <path class="cls-2" d="M431.81,137.78c-1.68,2.71-3.35,5.05-5.02,7.01-1.66,1.96-3.39,3.21-5.16,3.71-3.48.99-6.59.34-9.35-1.93-2.76-2.29-4.8-5.7-6.1-10.24-.24-.85-.47-1.88-.66-3.1l-.19-1.06c-.46-2.76,0-5.58,1.27-8.05,4.08-7.99,7.62-15.76,10.6-23.32,3.68-9.28,6.53-18.23,8.56-26.86,3.91-16.66,4.47-29.91,1.65-39.77-.91-3.19-1.8-5.38-2.67-6.55-.88-1.17-2.04-1.54-3.54-1.12-1.21.35-2.69,1.46-4.46,3.34-4.38,4.56-8.54,11.52-12.49,20.89-3.96,9.38-7.34,20.01-10.12,31.9-2.79,11.88-4.46,23.3-5.01,34.24-.3,6.11-.22,11.65.29,16.59.06.54.11,1.08.18,1.6.4,3.29,1,6.31,1.79,9.06.92,3.22,1.96,6.13,3.13,8.79.13.35.28.69.44,1.02,1.98,4.29,4.28,7.84,6.93,10.62,4.44,4.67,9.18,6.3,14.22,4.86,7.44-2.13,14.86-11.07,22.24-26.79,1.71-3.65,3.43-7.65,5.14-12.04.24-.64.28-1.36.1-2.01l-1.96-6.85c-4.73,7.78-7.95,13.05-9.67,15.82-.04.08-.09.16-.13.22ZM404.25,110.26c-.57-10.7.3-21.75,2.65-33.11,2.44-11.86,5.32-20.17,8.63-24.96.99-1.13,1.69-1.74,2.12-1.86,1.13-.32,1.94.33,2.41,1.95.61,2.13.63,5.55.09,10.22-.54,4.69-1.59,10.09-3.13,16.21-1.33,5.21-2.86,10.22-4.6,15.06-.29.83-.6,1.68-.92,2.52-2.13,5.6-4.51,10.73-7.17,15.4-.03-.46-.06-.95-.08-1.42Z"/>
  </g>
  <g>
    <path class="cls-3" d="M3.62,159.09H0l3.19-25.6h4.14c.11,5.06.52,8.95,1.21,11.67.69,2.73,1.74,4.6,3.15,5.63,1.41,1.03,3.24,1.54,5.48,1.54,2.13,0,4.14-.41,6.04-1.24,1.9-.83,3.46-2.21,4.7-4.15,1.24-1.94,1.85-4.56,1.85-7.88,0-2.76-.47-5.08-1.42-6.93-.95-1.86-2.2-3.5-3.75-4.92-1.55-1.42-3.19-2.77-4.92-4.03-2.01-1.58-3.88-3.22-5.61-4.92-1.73-1.7-3.12-3.77-4.18-6.22-1.06-2.45-1.6-5.49-1.6-9.13,0-5.37.93-9.88,2.8-13.51,1.87-3.63,4.46-6.38,7.76-8.24,3.31-1.86,7.12-2.79,11.43-2.79,2.07,0,3.78.24,5.13.71,1.35.47,2.49.95,3.41,1.42.92.47,1.73.71,2.42.71.46,0,.98-.18,1.55-.53.57-.36,1.04-1.13,1.38-2.31h3.19l-3.36,24.89h-3.88c-.17-7.19-1.05-12.21-2.63-15.05-1.58-2.84-3.98-4.27-7.2-4.27-3.51,0-6.18.95-8.02,2.84-1.84,1.9-2.76,4.7-2.76,8.42,0,2.37.5,4.41,1.51,6.1,1.01,1.7,2.33,3.22,3.97,4.56,1.64,1.34,3.38,2.69,5.22,4.03,2.13,1.5,4.13,3.2,6,5.1,1.87,1.9,3.39,4.19,4.57,6.87,1.18,2.69,1.77,6.01,1.77,9.96,0,5.77-1.08,10.67-3.24,14.7s-5.12,7.11-8.89,9.25c-3.77,2.13-8.07,3.2-12.9,3.2-2.7,0-4.74-.3-6.13-.89-1.38-.59-2.4-1.19-3.06-1.78-.66-.59-1.28-.89-1.85-.89-.69,0-1.29.34-1.81,1.01-.52.67-.86,1.56-1.04,2.67Z"/>
    <path class="cls-3" d="M57.97,158.97c-2.59,0-4.41-.95-5.48-2.85-1.06-1.9-1.6-4.42-1.6-7.58,0-1.34.09-2.77.26-4.27.17-1.5.4-3.04.69-4.62l4.49-25.25c.11-.79.2-1.48.26-2.07.06-.59.09-1.17.09-1.72,0-.79-.19-1.54-.56-2.25-.37-.71-1.14-1.07-2.29-1.07-.75,0-1.67.08-2.76.24v-5.1l15.1-1.3h4.49l-6.21,35.68c-.17.95-.3,1.86-.39,2.73-.09.87-.13,1.7-.13,2.49,0,1.5.19,2.73.56,3.67.37.95.93,1.42,1.68,1.42.98,0,1.98-.53,3.02-1.6s2.06-2.51,3.06-4.33c1.01-1.82,1.97-3.87,2.89-6.16.92-2.29,1.73-4.72,2.42-7.29.69-2.57,1.24-5.11,1.64-7.64l2.85-18.61h12.16l-6.12,41.25c-.35,2.53-.52,4.23-.52,5.1,0,.47.11.93.34,1.36.23.44.69.65,1.38.65.98,0,1.88-.39,2.72-1.18.83-.79,1.55-1.64,2.16-2.55.6-.91.99-1.52,1.16-1.84l2.67,2.73c-.98,2.13-2.1,4.11-3.36,5.93-1.27,1.82-2.85,3.28-4.74,4.39-1.9,1.11-4.28,1.66-7.16,1.66s-5.03-.67-6.13-2.02c-1.09-1.34-1.64-3.12-1.64-5.33,0-1.11.07-2.29.22-3.56.14-1.26.33-2.61.56-4.03h-1.04c-.52,1.03-1.25,2.37-2.2,4.03s-2.1,3.32-3.45,4.98c-1.35,1.66-2.95,3.06-4.79,4.21-1.84,1.14-3.94,1.72-6.3,1.72Z"/>
    <path class="cls-3" d="M114.91,157.55h-12.51l6.38-39.47c.17-1.26.35-2.55.52-3.85.17-1.3.26-2.47.26-3.5,0-1.11-.19-1.97-.56-2.61-.37-.63-1.14-.95-2.29-.95-.46,0-1.35.08-2.67.24v-4.98l13.8-1.3h4.4l-3.36,21.34h1.47l-5.44,35.08ZM115.69,147.71l3.88-23.82c.57-1.58,1.14-3.4,1.68-5.45.55-2.05,1.16-4.11,1.85-6.16.69-2.05,1.52-3.95,2.5-5.69.98-1.74,2.14-3.14,3.49-4.21,1.35-1.07,3-1.6,4.96-1.6,1.84,0,3.33.69,4.49,2.07,1.15,1.38,1.73,3.58,1.73,6.58s-.63,5.2-1.9,6.82c-1.27,1.62-2.65,2.43-4.14,2.43-1.21,0-2.11-.43-2.72-1.3-.6-.87-1.01-1.74-1.21-2.61-.2-.87-.36-1.3-.47-1.3-1.09,0-2.21.91-3.36,2.73-1.15,1.82-2.26,4.15-3.32,6.99-1.06,2.84-2.07,5.85-3.02,9.01-.95,3.16-1.81,6.14-2.59,8.95-.78,2.81-1.4,5-1.85,6.58Z"/>
    <path class="cls-3" d="M154.68,159.33c-3.74,0-6.77-.97-9.1-2.9s-4.03-4.56-5.09-7.88c-1.06-3.32-1.6-7.07-1.6-11.26,0-4.66.59-9.19,1.77-13.57,1.18-4.38,2.89-8.34,5.13-11.85,2.24-3.51,4.95-6.3,8.11-8.36,3.16-2.05,6.73-3.08,10.7-3.08,1.73,0,3.46.3,5.22.89,1.75.59,3.24,1.74,4.44,3.44,1.21,1.7,1.81,4.25,1.81,7.64,0,3.95-.86,7.31-2.59,10.08-1.73,2.77-3.93,5.02-6.6,6.76-2.67,1.74-5.48,3.04-8.41,3.91-2.93.87-5.61,1.42-8.02,1.66v-4.74c2.47-.16,4.72-1.01,6.73-2.55,2.01-1.54,3.64-3.63,4.87-6.28,1.24-2.65,1.85-5.71,1.85-9.19,0-1.74-.2-3.1-.6-4.09-.4-.99-1.09-1.48-2.07-1.48-1.32,0-2.59.87-3.8,2.61-1.21,1.74-2.27,4.05-3.19,6.93-.92,2.89-1.65,6.09-2.2,9.6-.55,3.52-.82,7.05-.82,10.61,0,5.14.8,8.63,2.42,10.49,1.61,1.86,3.62,2.78,6.04,2.78s4.46-.69,6.3-2.07c1.84-1.38,3.59-3.5,5.26-6.34l2.5,2.73c-2.53,5.77-5.43,9.8-8.71,12.09-3.28,2.29-6.73,3.44-10.35,3.44Z"/>
    <path class="cls-3" d="M191.6,159.44c-2.07,0-3.93-.32-5.56-.95-1.64-.63-3.18-1.5-4.62-2.61h-.52l-1.64,2.96h-3.11l3.19-22.05h3.54c.46,5.29,1.18,9.46,2.16,12.5.98,3.04,2.93,4.56,5.87,4.56,1.9,0,3.38-.61,4.44-1.84,1.06-1.22,1.6-2.94,1.6-5.16s-.52-4.13-1.55-5.99c-1.04-1.85-2.59-4.25-4.66-7.17-1.44-2.13-2.73-4.13-3.88-5.99-1.15-1.86-2.06-3.73-2.72-5.63-.66-1.9-.99-4.03-.99-6.4,0-4.74,1.28-8.45,3.84-11.14,2.56-2.68,5.82-4.03,9.79-4.03,1.9,0,3.77.32,5.61.95,1.84.63,3.39,1.54,4.66,2.73h.43l2.24-3.44h2.76l-1.9,19.2h-3.45c-.29-4.5-.99-8-2.11-10.49-1.12-2.49-2.95-3.73-5.48-3.73-1.67,0-2.9.53-3.71,1.6-.81,1.07-1.21,2.47-1.21,4.21,0,1.18.2,2.35.6,3.5.4,1.15,1.04,2.41,1.9,3.79.86,1.38,1.98,3.06,3.36,5.04,2.36,3.32,4.31,6.36,5.87,9.13,1.55,2.77,2.33,5.97,2.33,9.6s-.82,6.82-2.46,9.3c-1.64,2.49-3.75,4.37-6.34,5.63s-5.35,1.9-8.28,1.9Z"/>
    <path class="cls-3" d="M227.06,157.55h-12.25l11.13-70.52c.29-1.82.43-3.08.43-3.79,0-1.11-.23-1.94-.69-2.49-.46-.55-1.24-.83-2.33-.83-.46,0-1.29.08-2.5.24v-4.98l14.32-1.3h4.74l-5.61,31.65-3.28,16.71h1.9l-5.87,35.32ZM248.2,158.97c-2.24,0-3.93-.34-5.05-1.01-1.12-.67-1.87-1.56-2.24-2.67-.37-1.11-.56-2.21-.56-3.32s.07-2.19.22-3.26c.14-1.07.24-1.76.3-2.07l4.92-26.79c.4-2.29.6-3.95.6-4.98,0-.95-.16-1.74-.47-2.37-.32-.63-.82-.95-1.51-.95-1.04,0-2.14.75-3.32,2.25-1.18,1.5-2.34,3.46-3.49,5.87-1.15,2.41-2.24,4.92-3.28,7.53-1.04,2.61-1.94,5.06-2.72,7.35-.78,2.29-1.37,4.11-1.77,5.45l1.73-16.59c.86-1.97,1.85-4.27,2.98-6.87,1.12-2.61,2.44-5.12,3.97-7.53,1.52-2.41,3.34-4.42,5.44-6.04,2.1-1.62,4.59-2.43,7.46-2.43,2.13,0,3.75.44,4.87,1.3,1.12.87,1.88,2.02,2.29,3.44.4,1.42.6,2.92.6,4.5s-.12,3.14-.34,4.92c-.23,1.78-.43,3.1-.6,3.97l-4.74,26.08c-.23,1.19-.34,2.09-.34,2.73,0,1.58.6,2.37,1.81,2.37,1.44,0,2.66-.71,3.67-2.13,1.01-1.42,1.8-2.57,2.37-3.44l2.67,2.73c-.75,1.34-1.67,2.96-2.76,4.86-1.09,1.9-2.63,3.56-4.61,4.98-1.98,1.42-4.67,2.13-8.07,2.13Z"/>
  </g>
  <g>
    <path class="cls-3" d="M540.64,157.55h-48.42l.87-5.1c2.37,0,4.16-.28,5.38-.83,1.21-.55,2.11-1.62,2.69-3.2.58-1.58,1.1-3.91,1.56-6.99l6.86-45.16c.46-3,.66-5.33.61-6.99-.06-1.66-.58-2.82-1.56-3.5-.98-.67-2.69-1.01-5.12-1.01l.69-5.1h28.9l-.69,5.1c-2.43,0-4.3.34-5.6,1.01-1.3.67-2.26,1.84-2.86,3.5-.61,1.66-1.14,4.03-1.61,7.11l-7.2,46.94c-.41,2.92-.25,4.82.48,5.69.72.87,2.33,1.3,4.82,1.3h5.21c2.37,0,4.38-.28,6.03-.83,1.65-.55,3.07-1.5,4.25-2.84,1.18-1.34,2.28-3.16,3.3-5.45,1.01-2.29,2.1-5.18,3.25-8.65h4.34l-6.16,25.01Z"/>
    <path class="cls-3" d="M564.5,159.33c-2.2,0-4.27-.67-6.2-2.01-1.94-1.34-3.5-3.6-4.69-6.76-1.19-3.16-1.78-7.43-1.78-12.8s.64-10.57,1.91-15.11c1.27-4.54,2.99-8.47,5.16-11.79,2.17-3.32,4.64-5.87,7.42-7.64,2.78-1.78,5.64-2.67,8.59-2.67,2.78,0,4.79.69,6.03,2.07,1.24,1.38,2.33,2.87,3.25,4.44h.52l3.47-5.57h7.12l-6.16,40.3c-.29,1.98-.43,3.4-.43,4.27,0,.79.13,1.52.39,2.19.26.67.85,1.01,1.78,1.01.81,0,1.52-.26,2.13-.77.61-.51,1.17-1.17,1.69-1.96.52-.79,1.01-1.58,1.48-2.37l2.78,2.96c-.69,1.5-1.61,3.18-2.73,5.04-1.13,1.86-2.66,3.46-4.6,4.8-1.94,1.34-4.44,2.02-7.51,2.02-2.2,0-3.86-.52-4.99-1.54s-1.69-2.96-1.69-5.81v-1.19c0-.39.03-.83.09-1.3h-.69c-1.74,3.16-3.53,5.65-5.38,7.47-1.85,1.82-4.16,2.73-6.94,2.73ZM569.45,149.49c1.5,0,2.76-.53,3.77-1.6,1.01-1.07,1.89-2.67,2.65-4.8.75-2.13,1.44-4.74,2.08-7.82.35-1.74.68-3.63,1-5.69.32-2.05.59-4.17.82-6.34.23-2.17.35-4.25.35-6.22,0-3.24-.36-5.91-1.08-8-.72-2.09-2.01-3.14-3.86-3.14-1.74,0-3.27.89-4.6,2.67-1.33,1.78-2.46,4.17-3.38,7.17-.93,3-1.62,6.34-2.08,10.01-.46,3.67-.69,7.41-.69,11.2,0,4.98.43,8.32,1.3,10.02.87,1.7,2.11,2.55,3.73,2.55Z"/>
    <path class="cls-3" d="M615.79,157.55h-12.32l6.94-43.26c.23-1.74.35-3,.35-3.79,0-1.11-.2-1.93-.61-2.49-.41-.55-1.19-.83-2.34-.83-.46,0-1.36.08-2.69.24v-4.98l15.27-1.3h3.21l-3.73,19.44h2.08l-6.16,36.98ZM639.56,157.55h-12.41c1.1-5.53,1.98-9.99,2.65-13.39.66-3.4,1.21-6.26,1.65-8.59.43-2.33.84-4.58,1.22-6.76.37-2.17.82-4.84,1.34-8,.06-.16.16-.79.3-1.9.14-1.11.22-2.21.22-3.32s-.13-2.05-.39-2.84c-.26-.79-.77-1.18-1.52-1.18-1.16,0-2.43.99-3.82,2.96-1.39,1.98-2.76,4.56-4.12,7.76s-2.62,6.66-3.77,10.37c-1.16,3.72-2.14,7.27-2.95,10.67l2.43-21.57c.81-1.66,1.78-3.69,2.91-6.1,1.13-2.41,2.47-4.78,4.03-7.11,1.56-2.33,3.35-4.27,5.38-5.81,2.02-1.54,4.34-2.31,6.94-2.31,2.83,0,4.7.89,5.6,2.67.9,1.78,1.34,3.69,1.34,5.75,0,1.5-.12,2.94-.35,4.33-.23,1.38-.38,2.15-.43,2.31l-1.21,5.45h1.21l-4.34,24.42-1.91,12.21ZM659.78,158.97c-3.18,0-5.28-.77-6.29-2.31-1.01-1.54-1.52-3.22-1.52-5.04,0-.87.06-1.76.17-2.67.12-.91.2-1.52.26-1.84l4.51-21.22c.29-1.26.59-2.94.91-5.04.32-2.09.48-3.85.48-5.27,0-1.03-.13-1.96-.39-2.79-.26-.83-.74-1.24-1.43-1.24-.93,0-1.94.75-3.04,2.25-1.1,1.5-2.24,3.52-3.43,6.05-1.19,2.53-2.33,5.27-3.43,8.24-1.1,2.96-2.1,5.95-2.99,8.95-.9,3-1.61,5.77-2.13,8.3l3.3-22.28c1.27-3.4,2.6-6.48,3.99-9.25,1.39-2.77,2.88-5.14,4.47-7.11,1.59-1.97,3.28-3.5,5.08-4.56,1.79-1.07,3.73-1.6,5.81-1.6,2.78,0,4.6.85,5.47,2.55.87,1.7,1.3,3.69,1.3,5.99,0,1.66-.12,3.44-.35,5.33-.23,1.9-.41,3.08-.52,3.56l-5.12,26.79c-.17,1.19-.26,2.09-.26,2.73,0,1.58.61,2.37,1.82,2.37,1.33,0,2.49-.65,3.47-1.96.98-1.3,1.82-2.51,2.52-3.62l2.69,2.73c-.23.47-.68,1.36-1.34,2.67-.67,1.3-1.59,2.67-2.78,4.09-1.19,1.42-2.7,2.65-4.56,3.67s-4.08,1.54-6.68,1.54Z"/>
    <path class="cls-3" d="M691.63,159.44c-2.08,0-3.95-.32-5.6-.95-1.65-.63-3.2-1.5-4.64-2.61h-.52l-1.65,2.96h-3.12l3.21-22.05h3.56c.46,5.29,1.18,9.46,2.17,12.5.98,3.04,2.95,4.56,5.9,4.56,1.91,0,3.4-.61,4.47-1.84,1.07-1.22,1.61-2.94,1.61-5.16s-.52-4.13-1.56-5.99c-1.04-1.85-2.6-4.25-4.69-7.17-1.45-2.13-2.75-4.13-3.9-5.99-1.16-1.86-2.07-3.73-2.73-5.63-.67-1.9-1-4.03-1-6.4,0-4.74,1.29-8.45,3.86-11.14,2.57-2.68,5.86-4.03,9.85-4.03,1.91,0,3.79.32,5.64.95,1.85.63,3.41,1.54,4.69,2.73h.43l2.26-3.44h2.78l-1.91,19.2h-3.47c-.29-4.5-1-8-2.13-10.49-1.13-2.49-2.96-3.73-5.51-3.73-1.68,0-2.92.53-3.73,1.6-.81,1.07-1.22,2.47-1.22,4.21,0,1.18.2,2.35.61,3.5.4,1.15,1.04,2.41,1.91,3.79.87,1.38,2,3.06,3.38,5.04,2.37,3.32,4.34,6.36,5.9,9.13,1.56,2.77,2.34,5.97,2.34,9.6s-.82,6.82-2.47,9.3c-1.65,2.49-3.77,4.37-6.38,5.63-2.6,1.26-5.38,1.9-8.33,1.9Z"/>
    <path class="cls-3" d="M728.33,159.33c-2.2,0-4.27-.67-6.2-2.01-1.94-1.34-3.5-3.6-4.69-6.76-1.19-3.16-1.78-7.43-1.78-12.8s.64-10.57,1.91-15.11c1.27-4.54,2.99-8.47,5.16-11.79,2.17-3.32,4.64-5.87,7.42-7.64,2.78-1.78,5.64-2.67,8.59-2.67,2.78,0,4.79.69,6.03,2.07,1.24,1.38,2.33,2.87,3.25,4.44h.52l3.47-5.57h7.12l-6.16,40.3c-.29,1.98-.43,3.4-.43,4.27,0,.79.13,1.52.39,2.19.26.67.85,1.01,1.78,1.01.81,0,1.52-.26,2.13-.77.61-.51,1.17-1.17,1.69-1.96.52-.79,1.01-1.58,1.48-2.37l2.78,2.96c-.69,1.5-1.61,3.18-2.73,5.04-1.13,1.86-2.66,3.46-4.6,4.8-1.94,1.34-4.44,2.02-7.51,2.02-2.2,0-3.86-.52-4.99-1.54s-1.69-2.96-1.69-5.81v-1.19c0-.39.03-.83.09-1.3h-.69c-1.74,3.16-3.53,5.65-5.38,7.47-1.85,1.82-4.16,2.73-6.94,2.73ZM733.28,149.49c1.5,0,2.76-.53,3.77-1.6,1.01-1.07,1.89-2.67,2.65-4.8.75-2.13,1.44-4.74,2.08-7.82.35-1.74.68-3.63,1-5.69.32-2.05.59-4.17.82-6.34.23-2.17.35-4.25.35-6.22,0-3.24-.36-5.91-1.08-8-.72-2.09-2.01-3.14-3.86-3.14-1.74,0-3.27.89-4.6,2.67-1.33,1.78-2.46,4.17-3.38,7.17-.93,3-1.62,6.34-2.08,10.01-.46,3.67-.69,7.41-.69,11.2,0,4.98.43,8.32,1.3,10.02.87,1.7,2.11,2.55,3.73,2.55Z"/>
    <path class="cls-3" d="M774.84,158.97c-3.01,0-5-.77-5.99-2.31s-1.47-3.34-1.47-5.39c0-1.34.1-2.85.3-4.5.2-1.66.48-3.75.82-6.28l7.81-53.34c.17-1.66.26-2.96.26-3.91,0-.79-.16-1.56-.48-2.31-.32-.75-1.06-1.13-2.21-1.13-.75,0-1.68.08-2.78.24v-4.74l15.53-1.3h3.56l-9.81,68.15c-.35,2.77-.52,4.58-.52,5.45,0,.79.19,1.36.56,1.72.38.35.82.53,1.35.53,1.44,0,2.65-.67,3.6-2.02.96-1.34,1.78-2.53,2.47-3.56l2.69,2.73c-.93,1.9-2,3.75-3.21,5.57-1.22,1.82-2.81,3.34-4.77,4.56-1.97,1.22-4.54,1.84-7.72,1.84Z"/>
  </g>
</svg>